<?xml version="1.0" encoding="UTF-8" standalone="no"?>
<svg viewBox="0 0 1800 1800" version="1.1" xmlns="http://www.w3.org/2000/svg" xmlns:xlink="http://www.w3.org/1999/xlink">
  <title>Susy Logo - knockout</title>
  <circle fill="#FF0080" cx="900" cy="900" r="900"></circle>
  <path fill="#FFFFFF" d="M324,885.539 L324,871.053 C380.46,823.142 450.202,756.292 502.232,699.467 L528.8,717.294 C498.913,770.779 455.739,828.715 413.671,872.17 C480.094,955.735 483.413,960.196 526.587,1031.507 L502.232,1049.334 C477.877,1023.71 466.808,1011.448 432.49,980.256 C392.636,942.365 397.061,947.934 339.499,898.91 L324,885.54 L324,885.539 Z M549.933,1144.539 L597.23,1120.896 C685.906,1255.361 826.316,1348.453 938.641,1348.453 C1046.534,1348.453 1123.394,1271.613 1123.394,1162.27 C1123.394,1054.406 1061.316,999.734 882.481,950.974 C669.653,893.344 588.362,815.03 588.362,662.838 C588.362,510.642 706.6,388 851.442,388 C891.349,388 888.39,388 981.507,416.075 C994.806,420.508 1012.546,423.466 1019.932,423.466 C1030.277,423.466 1045.058,419.033 1058.362,413.121 L1108.609,388.004 L1200.244,643.632 L1152.947,674.661 C1067.225,532.809 957.854,451.537 851.443,451.537 C758.33,451.537 688.866,520.986 688.866,615.557 C688.866,708.644 752.421,769.232 883.959,803.215 C947.514,819.471 993.33,832.77 1015.501,838.677 C1148.52,878.571 1228.334,983.487 1228.334,1114.994 C1228.334,1281.967 1099.751,1412 937.17,1412 C886.918,1412 861.793,1406.088 799.719,1378.013 C773.116,1366.189 756.858,1361.761 746.513,1361.761 C731.732,1361.761 721.387,1366.194 703.652,1376.538 L647.492,1412 L549.934,1144.539 L549.933,1144.539 Z M1274.586,1031.511 C1317.761,959.082 1319.974,955.742 1386.398,872.172 C1344.33,828.717 1301.155,770.779 1271.267,717.294 L1298.938,699.467 C1349.867,756.293 1417.393,820.915 1476.067,871.055 L1476.067,885.542 L1419.606,932.338 C1398.574,950.17 1337.687,1008.107 1297.836,1049.334 L1274.587,1031.512 L1274.586,1031.511 Z"></path>
</svg>
